<svg id="Layer_1" data-name="Layer 1" xmlns="http://www.w3.org/2000/svg" viewBox="0 0 24 24">
    <g id="arrow-square-right">
        <path id="Vector" d="M16.19,2C19.83,2,22,4.17,22,7.81v8.37C22,19.83,19.83,22,16.19,22H7.82C4.18,22,2,19.83,2,16.19V7.81C2,4.17,4.17,2,7.81,2Z" fill="#dddddd" opacity="0.35" />
        <path id="Vector-2" d="M13.79,16.06a.75.75,0,0,0,0-1.06l-3-3,3-3a.75.75,0,0,0-1.06-1.06L9.2,11.47a.75.75,0,0,0,0,1.06l3.53,3.53a.75.75,0,0,0,1.06,0Z" fill="#aaaaaa" />
    </g>
</svg>